<?xml version="1.0" encoding="utf-8"?><svg xmlns="http://www.w3.org/2000/svg" xmlns:xlink="http://www.w3.org/1999/xlink"><symbol viewBox="0 0 24 24" id="alipay" xmlns="http://www.w3.org/2000/svg"><path d="M16.076 13.732a19.299 19.299 0 002.003-5.045h-4.731V6.988h5.795V6.04h-5.795V3.207h-2.365c-.415 0-.415.408-.415.408V6.04H4.707v.948h5.861v1.699H5.729v.948h9.386a16.63 16.63 0 01-1.352 3.294c-3.045-1.002-6.295-1.814-8.337-1.314-1.305.321-2.146.893-2.641 1.493-2.267 2.751-.641 6.929 4.147 6.929 2.831 0 5.559-1.574 7.673-4.168C17.758 17.381 24 19.976 24 19.976v.157a3.837 3.837 0 01-3.843 3.833H3.845A3.839 3.839 0 010 20.132V3.868A3.838 3.838 0 013.845.034h16.312A3.837 3.837 0 0124 3.868v12.409s-.784-.062-4.24-1.216c-.96-.321-2.249-.811-3.684-1.329zm-10.242-.698c-.6.059-1.725.324-2.341.866-1.845 1.604-.741 4.537 2.993 4.537 2.17 0 4.339-1.384 6.042-3.599-2.424-1.179-4.476-2.022-6.694-1.804z"/></symbol><symbol viewBox="0 0 24 24" id="arrow_back" xmlns="http://www.w3.org/2000/svg"><path d="M0 0h24v24H0V0z" fill="none"/><path d="M20 11H7.83l5.59-5.59L12 4l-8 8 8 8 1.41-1.41L7.83 13H20v-2z"/></symbol><symbol viewBox="0 0 24 24" id="arrow_forward" xmlns="http://www.w3.org/2000/svg"><path d="M0 0h24v24H0V0z" fill="none"/><path d="M12 4l-1.41 1.41L16.17 11H4v2h12.17l-5.58 5.59L12 20l8-8-8-8z"/></symbol><symbol viewBox="0 0 24 24" id="bookmark" xmlns="http://www.w3.org/2000/svg"><path d="M0 0h24v24H0V0z" fill="none"/><path d="M17 3H7c-1.1 0-2 .9-2 2v16l7-3 7 3V5c0-1.1-.9-2-2-2z"/></symbol><symbol viewBox="0 0 24 24" id="check" xmlns="http://www.w3.org/2000/svg"><path d="M0 0h24v24H0V0z" fill="none"/><path d="M9 16.17L4.83 12l-1.42 1.41L9 19 21 7l-1.41-1.41L9 16.17z"/></symbol><symbol viewBox="0 0 24 24" id="dots-vertical" xmlns="http://www.w3.org/2000/svg"><path d="M12 16a2 2 0 012 2 2 2 0 01-2 2 2 2 0 01-2-2 2 2 0 012-2m0-6a2 2 0 012 2 2 2 0 01-2 2 2 2 0 01-2-2 2 2 0 012-2m0-6a2 2 0 012 2 2 2 0 01-2 2 2 2 0 01-2-2 2 2 0 012-2z"/></symbol><symbol viewBox="0 0 24 24" id="favorite" xmlns="http://www.w3.org/2000/svg"><path d="M0 0h24v24H0V0z" fill="none"/><path d="M12 21.35l-1.45-1.32C5.4 15.36 2 12.28 2 8.5 2 5.42 4.42 3 7.5 3c1.74 0 3.41.81 4.5 2.09C13.09 3.81 14.76 3 16.5 3 19.58 3 22 5.42 22 8.5c0 3.78-3.4 6.86-8.55 11.54L12 21.35z"/></symbol><symbol viewBox="0 0 24 24" id="menu" xmlns="http://www.w3.org/2000/svg"><path d="M3 6h18v2H3V6m0 5h18v2H3v-2m0 5h18v2H3v-2z"/></symbol><symbol viewBox="0 0 24 24" id="share" xmlns="http://www.w3.org/2000/svg"><path d="M0 0h24v24H0V0z" fill="none"/><path d="M18 16.08c-.76 0-1.44.3-1.96.77L8.91 12.7c.05-.23.09-.46.09-.7s-.04-.47-.09-.7l7.05-4.11c.54.5 1.25.81 2.04.81 1.66 0 3-1.34 3-3s-1.34-3-3-3-3 1.34-3 3c0 .24.04.47.09.7L8.04 9.81C7.5 9.31 6.79 9 6 9c-1.66 0-3 1.34-3 3s1.34 3 3 3c.79 0 1.5-.31 2.04-.81l7.12 4.16c-.05.21-.08.43-.08.65 0 1.61 1.31 2.92 2.92 2.92s2.92-1.31 2.92-2.92c0-1.61-1.31-2.92-2.92-2.92zM18 4c.55 0 1 .45 1 1s-.45 1-1 1-1-.45-1-1 .45-1 1-1zM6 13c-.55 0-1-.45-1-1s.45-1 1-1 1 .45 1 1-.45 1-1 1zm12 7.02c-.55 0-1-.45-1-1s.45-1 1-1 1 .45 1 1-.45 1-1 1z"/></symbol><symbol viewBox="0 0 24 24" id="thumb_down" xmlns="http://www.w3.org/2000/svg"><path d="M0 0h24v24H0V0zm0 0h24v24H0V0z" fill="none"/><path d="M15 3H6c-.83 0-1.54.5-1.84 1.22l-3.02 7.05c-.09.23-.14.47-.14.73v2c0 1.1.9 2 2 2h6.31l-.95 4.57-.03.32c0 .41.17.79.44 1.06L9.83 23l6.59-6.59c.36-.36.58-.86.58-1.41V5c0-1.1-.9-2-2-2zm0 12l-4.34 4.34L12 14H3v-2l3-7h9v10zm4-12h4v12h-4z"/></symbol><symbol viewBox="0 0 24 24" id="thumb_up" xmlns="http://www.w3.org/2000/svg"><path d="M0 0h24v24H0V0zm0 0h24v24H0V0z" fill="none"/><path d="M9 21h9c.83 0 1.54-.5 1.84-1.22l3.02-7.05c.09-.23.14-.47.14-.73v-2c0-1.1-.9-2-2-2h-6.31l.95-4.57.03-.32c0-.41-.17-.79-.44-1.06L14.17 1 7.58 7.59C7.22 7.95 7 8.45 7 9v10c0 1.1.9 2 2 2zM9 9l4.34-4.34L12 10h9v2l-3 7H9V9zM1 9h4v12H1z"/></symbol><symbol viewBox="0 0 24 24" id="vk" xmlns="http://www.w3.org/2000/svg"><path d="M15.684 0H8.316C1.592 0 0 1.592 0 8.316v7.368C0 22.408 1.592 24 8.316 24h7.368C22.408 24 24 22.408 24 15.684V8.316C24 1.592 22.391 0 15.684 0zm3.692 17.123h-1.744c-.66 0-.864-.525-2.05-1.727-1.033-1-1.49-1.135-1.744-1.135-.356 0-.458.102-.458.593v1.575c0 .424-.135.678-1.253.678-1.846 0-3.896-1.118-5.335-3.202C4.624 10.857 4.03 8.57 4.03 8.096c0-.254.102-.491.593-.491h1.744c.44 0 .61.203.78.677.863 2.49 2.303 4.675 2.896 4.675.22 0 .322-.102.322-.66V9.721c-.068-1.186-.695-1.287-.695-1.71 0-.204.17-.407.44-.407h2.744c.373 0 .508.203.508.643v3.473c0 .372.17.508.271.508.22 0 .407-.136.813-.542 1.254-1.406 2.151-3.574 2.151-3.574.119-.254.322-.491.763-.491h1.744c.525 0 .644.27.525.643-.22 1.017-2.354 4.031-2.354 4.031-.186.305-.254.44 0 .78.186.254.796.779 1.203 1.253.745.847 1.32 1.558 1.473 2.05.17.49-.085.744-.576.744z"/></symbol><symbol viewBox="0 0 24 24" id="wechat" xmlns="http://www.w3.org/2000/svg"><path d="M23.541 12.748c-.609-1.38-1.758-2.476-3.092-3.151-2.354-1.192-5.281-1.185-7.629.03-1.631.837-2.993 2.337-3.379 4.162-.318 1.344-.033 2.791.68 3.961 1.061 1.762 2.979 2.887 4.971 3.248 1.443.293 2.936.119 4.338-.285.842.326 1.592.854 2.408 1.246a52.471 52.471 0 00-.676-2.102c.916-.65 1.746-1.461 2.244-2.479.744-1.415.789-3.171.135-4.63zm-9.924-9.466c-2.495-1.404-5.602-1.615-8.286-.645-1.764.635-3.36 1.815-4.346 3.42-.895 1.45-1.23 3.258-.799 4.917.433 1.84 1.711 3.383 3.262 4.413-.3.85-.585 1.699-.855 2.555.975-.51 1.95-1.043 2.926-1.561 1.17.375 2.415.559 3.66.518a6.159 6.159 0 01-.255-2.951c.225-1.371.975-2.625 1.994-3.554 1.726-1.615 4.171-2.296 6.496-2.131-.436-2.135-1.936-3.939-3.824-4.98h.027zm1.733 9.989c-.209.652-1.156.848-1.615.352-.506-.459-.309-1.418.355-1.623.734-.31 1.582.537 1.26 1.271zm4.795.092c-.256.586-1.141.723-1.576.27-.209-.191-.27-.479-.344-.73.104-.458.42-.933.93-.955.705-.098 1.336.773.975 1.416h.015zM12.99 6.909c.008.961-1.275 1.561-1.995.909-.747-.535-.535-1.837.342-2.106.785-.315 1.713.344 1.651 1.185l.002.012zm-6.059.244c-.172.835-1.291 1.238-1.946.678-.759-.535-.546-1.861.345-2.131.873-.336 1.865.55 1.601 1.453z"/></symbol></svg>